<svg width="24" height="32" viewBox="0 0 24 32" fill="none" xmlns="http://www.w3.org/2000/svg">
<path d="M3.99999 18.6667C3.81076 18.6675 3.62522 18.5968 3.46495 18.4627C3.30467 18.3285 3.17623 18.1365 3.09454 17.9089C3.01286 17.6813 2.98129 17.4275 3.00349 17.1769C3.0257 16.9263 3.10077 16.6893 3.21999 16.4933L13.12 2.89335C13.1943 2.77906 13.2955 2.70182 13.407 2.67432C13.5185 2.64683 13.6337 2.6707 13.7337 2.74202C13.8337 2.81334 13.9126 2.92788 13.9573 3.06682C14.0021 3.20577 14.0101 3.36088 13.98 3.50668L12.06 11.5333C12.0034 11.7354 11.9844 11.9527 12.0046 12.1667C12.0248 12.3807 12.0837 12.5849 12.1761 12.7619C12.2685 12.9389 12.3918 13.0834 12.5353 13.1829C12.6788 13.2824 12.8382 13.334 13 13.3333H20C20.1892 13.3325 20.3748 13.4032 20.535 13.5374C20.6953 13.6715 20.8238 13.8635 20.9054 14.0911C20.9871 14.3187 21.0187 14.5726 20.9965 14.8231C20.9743 15.0737 20.8992 15.3107 20.78 15.5067L10.88 29.1067C10.8057 29.221 10.7045 29.2982 10.593 29.3257C10.4815 29.3532 10.3663 29.3293 10.2663 29.258C10.1663 29.1867 10.0874 29.0721 10.0427 28.9332C9.99791 28.7943 9.98991 28.6391 10.02 28.4933L11.94 20.4667C11.9966 20.2646 12.0156 20.0473 11.9954 19.8333C11.9752 19.6194 11.9163 19.4151 11.8239 19.2381C11.7315 19.0611 11.6082 18.9167 11.4647 18.8171C11.3212 18.7176 11.1617 18.666 11 18.6667H3.99999Z" stroke="#00005C" stroke-width="3" stroke-linecap="round" stroke-linejoin="round"/>
</svg>
