<svg width="1100" height="400" viewBox="0 0 1100 400" fill="none" xmlns="http://www.w3.org/2000/svg">
<rect width="1100" height="400" rx="50" fill="white"/>
<path opacity="0.5" d="M39 125C75.6667 98.3333 118.444 91.6667 167.333 105M167.333 105C216.222 78.3333 265.111 71.6667 314 85M167.333 105C191.778 131.667 216.222 151.667 240.667 165M314 85C362.889 65 411.778 58.3333 460.667 65M314 85C338.444 111.667 362.889 118.333 387.333 105C411.778 131.667 436.222 138.333 460.667 125M460.667 65C509.556 51.6667 558.444 55 607.333 75M460.667 65C485.111 91.6667 509.556 98.3333 534 85C558.444 111.667 582.889 118.333 607.333 105C631.778 131.667 656.222 138.333 680.667 125C705.111 178.333 729.555 211.667 754 225C778.444 251.667 802.889 258.333 827.333 245C851.778 271.667 876.222 278.333 900.667 265M607.333 75C656.222 61.6667 705.111 65 754 85M607.333 75C631.778 101.667 656.222 108.333 680.667 95C705.111 121.667 729.555 128.333 754 115C778.444 141.667 802.889 148.333 827.333 135M754 85C802.889 71.6667 851.778 78.3333 900.667 105C937.333 91.6667 974 98.3333 1010.67 125M754 85C778.444 111.667 802.889 118.333 827.333 105C851.778 131.667 876.222 138.333 900.667 125M240.667 165C265.111 191.667 289.556 198.333 314 185C338.444 211.667 362.889 218.333 387.333 205M240.667 165C265.111 218.333 289.556 251.667 314 265C338.444 291.667 362.889 298.333 387.333 285M460.667 125C485.111 151.667 509.556 158.333 534 145M460.667 125C485.111 178.333 509.556 211.667 534 225C558.444 251.667 582.889 258.333 607.333 245C631.778 271.667 656.222 278.333 680.667 265M387.333 285C411.778 311.667 436.222 318.333 460.667 305M387.333 285C411.778 338.333 436.222 371.667 460.667 385C485.111 398.333 509.556 398.333 534 385" stroke="#C4CBD4" stroke-width="3.1"/>
<path opacity="0.5" d="M277.333 265C358.335 265 424 220.228 424 165C424 109.772 358.335 65 277.333 65C196.331 65 130.667 109.772 130.667 165C130.667 220.228 196.331 265 277.333 265Z" fill="#F4F8FE"/>
<path opacity="0.5" d="M534 265C635.252 265 717.333 211.274 717.333 145C717.333 78.7258 635.252 25 534 25C432.748 25 350.667 78.7258 350.667 145C350.667 211.274 432.748 265 534 265Z" fill="#F4F8FE"/>
<path opacity="0.5" d="M772.333 325C843.21 325 900.666 280.228 900.666 225C900.666 169.772 843.21 125 772.333 125C701.457 125 644 169.772 644 225C644 280.228 701.457 325 772.333 325Z" fill="#F4F8FE"/>
<path opacity="0.3" d="M369 145L460.667 55" stroke="#00005C" stroke-width="2.06667" stroke-dasharray="8.27 8.27"/>
<path opacity="0.3" d="M369 145L589 105" stroke="#00005C" stroke-width="2.06667" stroke-dasharray="8.27 8.27"/>
<path opacity="0.3" d="M369 145L515.667 215" stroke="#00005C" stroke-width="2.06667" stroke-dasharray="8.27 8.27"/>
<path opacity="0.3" d="M460.667 55L589 105" stroke="#00005C" stroke-width="2.06667" stroke-dasharray="8.27 8.27"/>
<path opacity="0.3" d="M460.667 55L717.333 285" stroke="#00005C" stroke-width="2.06667" stroke-dasharray="8.27 8.27"/>
<path opacity="0.3" d="M460.667 55L515.667 215" stroke="#00005C" stroke-width="2.06667" stroke-dasharray="8.27 8.27"/>
<path opacity="0.3" d="M589 105L717.333 285" stroke="#00005C" stroke-width="2.06667" stroke-dasharray="8.27 8.27"/>
<path opacity="0.3" d="M589 105L515.667 215" stroke="#00005C" stroke-width="2.06667" stroke-dasharray="8.27 8.27"/>
<path opacity="0.3" d="M717.333 285L515.667 215" stroke="#00005C" stroke-width="2.06667" stroke-dasharray="8.27 8.27"/>
<path opacity="0.1" d="M369 169C381.15 169 391 158.255 391 145C391 131.745 381.15 121 369 121C356.85 121 347 131.745 347 145C347 158.255 356.85 169 369 169Z" fill="#00005C"/>
<path d="M369 157C375.075 157 380 151.627 380 145C380 138.373 375.075 133 369 133C362.925 133 358 138.373 358 145C358 151.627 362.925 157 369 157Z" fill="#00005C"/>
<path d="M369 149C371.025 149 372.667 147.209 372.667 145C372.667 142.791 371.025 141 369 141C366.975 141 365.333 142.791 365.333 145C365.333 147.209 366.975 149 369 149Z" fill="white"/>
<path d="M338.713 184.667H336.892C336.785 184.143 336.596 183.683 336.327 183.287C336.063 182.891 335.74 182.558 335.359 182.289C334.982 182.015 334.564 181.809 334.104 181.672C333.644 181.535 333.164 181.467 332.665 181.467C331.755 181.467 330.931 181.697 330.192 182.157C329.458 182.617 328.873 183.294 328.438 184.19C328.007 185.085 327.792 186.183 327.792 187.485C327.792 188.786 328.007 189.885 328.438 190.78C328.873 191.675 329.458 192.353 330.192 192.813C330.931 193.273 331.755 193.503 332.665 193.503C333.164 193.503 333.644 193.434 334.104 193.297C334.564 193.16 334.982 192.957 335.359 192.688C335.74 192.414 336.063 192.079 336.327 191.683C336.596 191.282 336.785 190.822 336.892 190.303H338.713C338.576 191.071 338.326 191.759 337.964 192.365C337.602 192.972 337.152 193.488 336.614 193.914C336.075 194.335 335.471 194.655 334.801 194.875C334.135 195.095 333.424 195.205 332.665 195.205C331.383 195.205 330.243 194.892 329.245 194.266C328.247 193.64 327.462 192.749 326.889 191.595C326.317 190.44 326.031 189.07 326.031 187.485C326.031 185.9 326.317 184.53 326.889 183.375C327.462 182.22 328.247 181.33 329.245 180.704C330.243 180.077 331.383 179.764 332.665 179.764C333.424 179.764 334.135 179.874 334.801 180.094C335.471 180.315 336.075 180.638 336.614 181.063C337.152 181.484 337.602 181.998 337.964 182.604C338.326 183.206 338.576 183.894 338.713 184.667ZM340.773 185.342V183.727H349.932V185.342H346.233V195H344.501V185.342H340.773ZM355.19 195.264C354.476 195.264 353.828 195.13 353.246 194.861C352.663 194.587 352.201 194.193 351.859 193.679C351.516 193.16 351.345 192.534 351.345 191.8C351.345 191.154 351.472 190.631 351.726 190.23C351.981 189.824 352.321 189.506 352.747 189.276C353.172 189.046 353.642 188.874 354.156 188.762C354.674 188.644 355.195 188.551 355.719 188.483C356.404 188.395 356.959 188.329 357.385 188.285C357.815 188.236 358.129 188.155 358.324 188.043C358.525 187.93 358.625 187.734 358.625 187.455V187.397C358.625 186.673 358.427 186.11 358.031 185.709C357.639 185.308 357.045 185.107 356.247 185.107C355.42 185.107 354.772 185.288 354.302 185.65C353.833 186.012 353.502 186.399 353.312 186.81L351.668 186.223C351.961 185.538 352.353 185.004 352.842 184.623C353.336 184.236 353.874 183.967 354.457 183.815C355.044 183.659 355.621 183.58 356.189 183.58C356.551 183.58 356.967 183.625 357.436 183.713C357.911 183.796 358.368 183.969 358.809 184.234C359.254 184.498 359.623 184.897 359.917 185.43C360.21 185.963 360.357 186.678 360.357 187.573V195H358.625V193.473H358.537C358.42 193.718 358.224 193.98 357.95 194.259C357.676 194.538 357.311 194.775 356.856 194.971C356.401 195.166 355.846 195.264 355.19 195.264ZM355.455 193.708C356.14 193.708 356.717 193.574 357.187 193.305C357.661 193.036 358.018 192.688 358.258 192.263C358.503 191.837 358.625 191.389 358.625 190.92V189.334C358.552 189.422 358.39 189.503 358.141 189.576C357.896 189.645 357.612 189.706 357.289 189.76C356.971 189.809 356.661 189.853 356.357 189.892C356.059 189.926 355.817 189.956 355.631 189.98C355.181 190.039 354.76 190.134 354.368 190.266C353.982 190.394 353.669 190.587 353.429 190.846C353.194 191.101 353.077 191.448 353.077 191.888C353.077 192.49 353.299 192.945 353.745 193.253C354.195 193.557 354.765 193.708 355.455 193.708ZM369.683 192.652L373.617 183.727H375.261L370.388 195H368.979L364.194 183.727H365.808L369.683 192.652ZM365.25 183.727V195H363.518V183.727H365.25ZM374.116 195V183.727H375.848V195H374.116ZM387.385 179.5L388.266 180.557C387.923 180.89 387.527 181.122 387.077 181.254C386.627 181.386 386.118 181.467 385.55 181.496C384.983 181.526 384.351 181.555 383.657 181.584C382.874 181.614 382.226 181.804 381.712 182.157C381.198 182.509 380.802 183.018 380.523 183.683C380.244 184.349 380.065 185.166 379.987 186.134H380.134C380.516 185.43 381.044 184.911 381.719 184.579C382.394 184.246 383.118 184.08 383.892 184.08C384.772 184.08 385.565 184.285 386.269 184.696C386.974 185.107 387.532 185.716 387.943 186.523C388.354 187.331 388.559 188.326 388.559 189.51C388.559 190.69 388.349 191.707 387.928 192.563C387.512 193.42 386.927 194.08 386.174 194.545C385.425 195.005 384.547 195.235 383.539 195.235C382.531 195.235 381.648 194.998 380.89 194.523C380.131 194.043 379.542 193.334 379.121 192.395C378.7 191.45 378.49 190.283 378.49 188.894V187.69C378.49 185.18 378.916 183.277 379.767 181.981C380.623 180.684 381.91 180.014 383.627 179.97C384.234 179.95 384.775 179.945 385.249 179.955C385.724 179.965 386.137 179.943 386.49 179.889C386.842 179.835 387.14 179.705 387.385 179.5ZM383.539 193.679C384.219 193.679 384.804 193.508 385.293 193.165C385.787 192.823 386.167 192.341 386.431 191.719C386.695 191.093 386.827 190.357 386.827 189.51C386.827 188.688 386.693 187.989 386.423 187.411C386.159 186.834 385.78 186.394 385.286 186.09C384.792 185.787 384.2 185.635 383.51 185.635C383.006 185.635 382.553 185.721 382.152 185.892C381.751 186.064 381.408 186.315 381.125 186.648C380.841 186.981 380.621 187.387 380.464 187.866C380.313 188.346 380.232 188.894 380.222 189.51C380.222 190.773 380.518 191.783 381.11 192.541C381.702 193.3 382.512 193.679 383.539 193.679ZM392.324 199.227C392.03 199.227 391.769 199.203 391.539 199.154C391.309 199.11 391.15 199.066 391.062 199.022L391.502 197.495C391.923 197.603 392.295 197.642 392.618 197.613C392.941 197.583 393.227 197.439 393.476 197.18C393.731 196.925 393.963 196.512 394.173 195.939L394.496 195.059L390.328 183.727H392.207L395.318 192.71H395.436L398.548 183.727H400.426L395.641 196.644C395.426 197.226 395.159 197.708 394.841 198.09C394.523 198.476 394.154 198.762 393.733 198.948C393.317 199.134 392.848 199.227 392.324 199.227ZM400.766 195V193.385H401.177C401.514 193.385 401.796 193.319 402.021 193.187C402.246 193.05 402.427 192.813 402.564 192.475C402.706 192.133 402.813 191.658 402.887 191.052C402.965 190.44 403.021 189.662 403.056 188.718L403.261 183.727H410.776V195H409.044V185.342H404.905L404.729 189.364C404.69 190.288 404.607 191.103 404.479 191.808C404.357 192.507 404.169 193.094 403.914 193.569C403.665 194.043 403.332 194.401 402.916 194.64C402.5 194.88 401.979 195 401.353 195H400.766Z" fill="#65758B"/>
<path opacity="0.1" d="M460.667 79C472.817 79 482.667 68.2548 482.667 55C482.667 41.7452 472.817 31 460.667 31C448.516 31 438.667 41.7452 438.667 55C438.667 68.2548 448.516 79 460.667 79Z" fill="#00005C"/>
<path d="M460.667 67C466.742 67 471.667 61.6274 471.667 55C471.667 48.3726 466.742 43 460.667 43C454.592 43 449.667 48.3726 449.667 55C449.667 61.6274 454.592 67 460.667 67Z" fill="#00005C"/>
<path d="M460.667 59C462.692 59 464.333 57.2091 464.333 55C464.333 52.7909 462.692 51 460.667 51C458.642 51 457 52.7909 457 55C457 57.2091 458.642 59 460.667 59Z" fill="white"/>
<path d="M424.735 89.9697H426.907L432.015 102.446H432.191L437.299 89.9697H439.471V105H437.769V93.5805H437.622L432.925 105H431.281L426.584 93.5805H426.437V105H424.735V89.9697ZM447.465 105.235C446.448 105.235 445.555 104.993 444.787 104.508C444.023 104.024 443.426 103.346 442.996 102.475C442.57 101.604 442.357 100.587 442.357 99.4223C442.357 98.2481 442.57 97.2231 442.996 96.3473C443.426 95.4715 444.023 94.7914 444.787 94.3071C445.555 93.8227 446.448 93.5805 447.465 93.5805C448.483 93.5805 449.373 93.8227 450.137 94.3071C450.905 94.7914 451.502 95.4715 451.927 96.3473C452.358 97.2231 452.573 98.2481 452.573 99.4223C452.573 100.587 452.358 101.604 451.927 102.475C451.502 103.346 450.905 104.024 450.137 104.508C449.373 104.993 448.483 105.235 447.465 105.235ZM447.465 103.679C448.238 103.679 448.874 103.481 449.373 103.085C449.873 102.688 450.242 102.167 450.482 101.521C450.721 100.875 450.841 100.176 450.841 99.4223C450.841 98.6689 450.721 97.9668 450.482 97.3161C450.242 96.6653 449.873 96.1394 449.373 95.7382C448.874 95.337 448.238 95.1364 447.465 95.1364C446.692 95.1364 446.056 95.337 445.557 95.7382C445.058 96.1394 444.689 96.6653 444.449 97.3161C444.209 97.9668 444.089 98.6689 444.089 99.4223C444.089 100.176 444.209 100.875 444.449 101.521C444.689 102.167 445.058 102.688 445.557 103.085C446.056 103.481 446.692 103.679 447.465 103.679ZM459.797 105.235C458.74 105.235 457.83 104.985 457.067 104.486C456.303 103.987 455.716 103.3 455.305 102.424C454.894 101.548 454.689 100.548 454.689 99.4223C454.689 98.2775 454.899 97.2671 455.32 96.3913C455.746 95.5107 456.338 94.8232 457.096 94.3291C457.859 93.83 458.75 93.5805 459.767 93.5805C460.56 93.5805 461.274 93.7273 461.91 94.0208C462.546 94.3144 463.067 94.7254 463.474 95.2538C463.88 95.7822 464.132 96.3987 464.229 97.1032H462.497C462.365 96.5895 462.072 96.1345 461.617 95.7382C461.167 95.337 460.56 95.1364 459.797 95.1364C459.121 95.1364 458.529 95.3125 458.021 95.6648C457.517 96.0122 457.123 96.5039 456.839 97.1399C456.56 97.7711 456.421 98.5123 456.421 99.3636C456.421 100.235 456.558 100.993 456.832 101.639C457.111 102.285 457.502 102.786 458.006 103.143C458.515 103.5 459.112 103.679 459.797 103.679C460.247 103.679 460.655 103.601 461.022 103.444C461.389 103.288 461.7 103.063 461.954 102.769C462.209 102.475 462.39 102.123 462.497 101.712H464.229C464.132 102.378 463.889 102.977 463.503 103.51C463.121 104.039 462.615 104.459 461.984 104.772C461.357 105.081 460.628 105.235 459.797 105.235ZM466.761 105V93.7273H468.493V98.6297H469.638L473.689 93.7273H475.921L471.37 99.1581L475.979 105H473.748L470.049 100.244H468.493V105H466.761ZM477.862 105V93.7273H482.471C483.684 93.7273 484.648 94.0013 485.362 94.5492C486.076 95.0972 486.434 95.8213 486.434 96.7216C486.434 97.4066 486.231 97.9374 485.825 98.3142C485.418 98.686 484.897 98.938 484.261 99.0701C484.677 99.1288 485.081 99.2756 485.472 99.5104C485.869 99.7453 486.196 100.068 486.456 100.479C486.715 100.885 486.845 101.384 486.845 101.976C486.845 102.554 486.698 103.07 486.404 103.525C486.111 103.98 485.69 104.339 485.142 104.604C484.594 104.868 483.938 105 483.175 105H477.862ZM479.506 103.415H483.175C483.772 103.415 484.239 103.273 484.577 102.989C484.914 102.705 485.083 102.319 485.083 101.83C485.083 101.247 484.914 100.79 484.577 100.457C484.239 100.12 483.772 99.9508 483.175 99.9508H479.506V103.415ZM479.506 98.4536H482.471C482.935 98.4536 483.334 98.39 483.667 98.2628C484 98.1307 484.254 97.9448 484.43 97.705C484.611 97.4604 484.702 97.1717 484.702 96.839C484.702 96.3644 484.503 95.9926 484.107 95.7235C483.711 95.4495 483.165 95.3125 482.471 95.3125H479.506V98.4536ZM492.784 105.264C492.069 105.264 491.421 105.13 490.839 104.861C490.257 104.587 489.794 104.193 489.452 103.679C489.109 103.16 488.938 102.534 488.938 101.8C488.938 101.154 489.065 100.631 489.32 100.23C489.574 99.8235 489.914 99.5055 490.34 99.2756C490.766 99.0456 491.235 98.8744 491.749 98.7618C492.268 98.6444 492.789 98.5515 493.312 98.483C493.997 98.3949 494.552 98.3288 494.978 98.2848C495.409 98.2359 495.722 98.1551 495.917 98.0426C496.118 97.9301 496.218 97.7344 496.218 97.4555V97.3968C496.218 96.6727 496.02 96.11 495.624 95.7088C495.233 95.3076 494.638 95.107 493.841 95.107C493.014 95.107 492.365 95.288 491.896 95.6501C491.426 96.0122 491.096 96.3987 490.905 96.8097L489.261 96.2225C489.555 95.5376 489.946 95.0043 490.435 94.6226C490.929 94.2361 491.468 93.967 492.05 93.8153C492.637 93.6588 493.214 93.5805 493.782 93.5805C494.144 93.5805 494.56 93.6245 495.029 93.7126C495.504 93.7958 495.962 93.9695 496.402 94.2337C496.847 94.4979 497.216 94.8966 497.51 95.4299C497.804 95.9632 497.95 96.6776 497.95 97.5729V105H496.218V103.473H496.13C496.013 103.718 495.817 103.98 495.543 104.259C495.269 104.538 494.905 104.775 494.45 104.971C493.995 105.166 493.439 105.264 492.784 105.264ZM493.048 103.708C493.733 103.708 494.31 103.574 494.78 103.305C495.255 103.036 495.612 102.688 495.851 102.263C496.096 101.837 496.218 101.389 496.218 100.92V99.3343C496.145 99.4223 495.984 99.5031 495.734 99.5765C495.489 99.645 495.206 99.7061 494.883 99.7599C494.565 99.8089 494.254 99.8529 493.951 99.892C493.652 99.9263 493.41 99.9557 493.224 99.9801C492.774 100.039 492.353 100.134 491.962 100.266C491.575 100.394 491.262 100.587 491.022 100.846C490.788 101.101 490.67 101.448 490.67 101.888C490.67 102.49 490.893 102.945 491.338 103.253C491.788 103.557 492.358 103.708 493.048 103.708Z" fill="#65758B"/>
<path opacity="0.1" d="M589 129C601.15 129 611 118.255 611 105C611 91.7452 601.15 81 589 81C576.85 81 567 91.7452 567 105C567 118.255 576.85 129 589 129Z" fill="#00005C"/>
<path d="M589 117C595.075 117 600 111.627 600 105C600 98.3726 595.075 93 589 93C582.925 93 578 98.3726 578 105C578 111.627 582.925 117 589 117Z" fill="#00005C"/>
<path d="M589 109C591.025 109 592.667 107.209 592.667 105C592.667 102.791 591.025 101 589 101C586.975 101 585.333 102.791 585.333 105C585.333 107.209 586.975 109 589 109Z" fill="white"/>
<path d="M552.597 155H550.689L556.208 139.97H558.087L563.605 155H561.697L557.206 142.348H557.088L552.597 155ZM553.301 149.129H560.993V150.743H553.301V149.129ZM564.714 155V153.385H565.125C565.462 153.385 565.744 153.319 565.969 153.187C566.194 153.05 566.375 152.813 566.512 152.475C566.654 152.133 566.761 151.658 566.835 151.052C566.913 150.44 566.969 149.662 567.003 148.718L567.209 143.727H574.724V155H572.992V145.342H568.853L568.677 149.364C568.638 150.288 568.554 151.103 568.427 151.808C568.305 152.507 568.117 153.094 567.862 153.569C567.613 154.043 567.28 154.401 566.864 154.64C566.448 154.88 565.927 155 565.301 155H564.714ZM584.067 152.652L588 143.727H589.644L584.771 155H583.362L578.577 143.727H580.192L584.067 152.652ZM579.634 143.727V155H577.902V143.727H579.634ZM588.499 155V143.727H590.231V155H588.499ZM596.719 155.264C596.005 155.264 595.357 155.13 594.774 154.861C594.192 154.587 593.73 154.193 593.387 153.679C593.045 153.16 592.873 152.534 592.873 151.8C592.873 151.154 593.001 150.631 593.255 150.23C593.51 149.824 593.85 149.506 594.275 149.276C594.701 149.046 595.171 148.874 595.684 148.762C596.203 148.644 596.724 148.551 597.248 148.483C597.932 148.395 598.488 148.329 598.913 148.285C599.344 148.236 599.657 148.155 599.853 148.043C600.053 147.93 600.154 147.734 600.154 147.455V147.397C600.154 146.673 599.956 146.11 599.559 145.709C599.168 145.308 598.573 145.107 597.776 145.107C596.949 145.107 596.301 145.288 595.831 145.65C595.361 146.012 595.031 146.399 594.84 146.81L593.196 146.223C593.49 145.538 593.881 145.004 594.371 144.623C594.865 144.236 595.403 143.967 595.985 143.815C596.572 143.659 597.15 143.58 597.717 143.58C598.079 143.58 598.495 143.625 598.965 143.713C599.439 143.796 599.897 143.969 600.337 144.234C600.782 144.498 601.152 144.897 601.445 145.43C601.739 145.963 601.886 146.678 601.886 147.573V155H600.154V153.473H600.066C599.948 153.718 599.753 153.98 599.479 154.259C599.205 154.538 598.84 154.775 598.385 154.971C597.93 155.166 597.375 155.264 596.719 155.264ZM596.983 153.708C597.668 153.708 598.246 153.574 598.715 153.305C599.19 153.036 599.547 152.688 599.787 152.263C600.031 151.837 600.154 151.389 600.154 150.92V149.334C600.08 149.422 599.919 149.503 599.669 149.576C599.425 149.645 599.141 149.706 598.818 149.76C598.5 149.809 598.189 149.853 597.886 149.892C597.588 149.926 597.345 149.956 597.159 149.98C596.709 150.039 596.289 150.134 595.897 150.266C595.511 150.394 595.197 150.587 594.958 150.846C594.723 151.101 594.605 151.448 594.605 151.888C594.605 152.49 594.828 152.945 595.273 153.253C595.723 153.557 596.293 153.708 596.983 153.708ZM603.513 145.342V143.727H612.672V145.342H608.973V155H607.241V145.342H603.513ZM616.696 147.808H619.925C621.246 147.808 622.256 148.143 622.956 148.813C623.656 149.484 624.006 150.332 624.006 151.36C624.006 152.035 623.849 152.649 623.536 153.202C623.223 153.75 622.763 154.188 622.156 154.516C621.549 154.839 620.806 155 619.925 155H615.199V143.727H616.931V153.385H619.925C620.61 153.385 621.173 153.204 621.613 152.842C622.053 152.48 622.274 152.015 622.274 151.448C622.274 150.851 622.053 150.364 621.613 149.987C621.173 149.611 620.61 149.422 619.925 149.422H616.696V147.808ZM625.796 155V143.727H627.528V155H625.796Z" fill="#65758B"/>
<path opacity="0.1" d="M717.333 309C729.484 309 739.333 298.255 739.333 285C739.333 271.745 729.484 261 717.333 261C705.183 261 695.333 271.745 695.333 285C695.333 298.255 705.183 309 717.333 309Z" fill="#00005C"/>
<path d="M717.333 297C723.408 297 728.333 291.627 728.333 285C728.333 278.373 723.408 273 717.333 273C711.258 273 706.333 278.373 706.333 285C706.333 291.627 711.258 297 717.333 297Z" fill="#00005C"/>
<path d="M717.333 289C719.358 289 721 287.209 721 285C721 282.791 719.358 281 717.333 281C715.308 281 713.667 282.791 713.667 285C713.667 287.209 715.308 289 717.333 289Z" fill="white"/>
<path d="M682.333 324.667H680.513C680.405 324.143 680.217 323.683 679.948 323.287C679.683 322.891 679.36 322.558 678.979 322.289C678.602 322.015 678.184 321.809 677.724 321.672C677.264 321.535 676.784 321.467 676.285 321.467C675.375 321.467 674.551 321.697 673.812 322.157C673.078 322.617 672.494 323.294 672.058 324.19C671.628 325.085 671.412 326.183 671.412 327.485C671.412 328.786 671.628 329.885 672.058 330.78C672.494 331.675 673.078 332.353 673.812 332.813C674.551 333.273 675.375 333.503 676.285 333.503C676.784 333.503 677.264 333.434 677.724 333.297C678.184 333.16 678.602 332.957 678.979 332.688C679.36 332.414 679.683 332.079 679.948 331.683C680.217 331.282 680.405 330.822 680.513 330.303H682.333C682.196 331.071 681.946 331.759 681.584 332.365C681.222 332.972 680.772 333.488 680.234 333.914C679.696 334.335 679.091 334.655 678.421 334.875C677.756 335.095 677.044 335.205 676.285 335.205C675.004 335.205 673.864 334.892 672.865 334.266C671.867 333.64 671.082 332.749 670.51 331.595C669.937 330.44 669.651 329.07 669.651 327.485C669.651 325.9 669.937 324.53 670.51 323.375C671.082 322.22 671.867 321.33 672.865 320.704C673.864 320.077 675.004 319.764 676.285 319.764C677.044 319.764 677.756 319.874 678.421 320.094C679.091 320.315 679.696 320.638 680.234 321.063C680.772 321.484 681.222 321.998 681.584 322.604C681.946 323.206 682.196 323.894 682.333 324.667ZM686.771 332.446L692.202 323.727H694.198V335H692.466V326.281L687.065 335H685.039V323.727H686.771V332.446ZM704.915 328.571V330.186H698.691V328.571H704.915ZM699.102 323.727V335H697.37V323.727H699.102ZM706.236 323.727V335H704.504V323.727H706.236ZM716.356 323.727V325.342H711.131V335H709.399V323.727H716.356ZM721.617 335.264C720.902 335.264 720.254 335.13 719.672 334.861C719.09 334.587 718.627 334.193 718.285 333.679C717.942 333.16 717.771 332.534 717.771 331.8C717.771 331.154 717.898 330.631 718.153 330.23C718.407 329.824 718.747 329.506 719.173 329.276C719.598 329.046 720.068 328.874 720.582 328.762C721.1 328.644 721.622 328.551 722.145 328.483C722.83 328.395 723.385 328.329 723.811 328.285C724.242 328.236 724.555 328.155 724.75 328.043C724.951 327.93 725.051 327.734 725.051 327.455V327.397C725.051 326.673 724.853 326.11 724.457 325.709C724.065 325.308 723.471 325.107 722.673 325.107C721.847 325.107 721.198 325.288 720.729 325.65C720.259 326.012 719.929 326.399 719.738 326.81L718.094 326.223C718.387 325.538 718.779 325.004 719.268 324.623C719.762 324.236 720.301 323.967 720.883 323.815C721.47 323.659 722.047 323.58 722.615 323.58C722.977 323.58 723.393 323.625 723.862 323.713C724.337 323.796 724.794 323.969 725.235 324.234C725.68 324.498 726.049 324.897 726.343 325.43C726.637 325.963 726.783 326.678 726.783 327.573V335H725.051V333.473H724.963C724.846 333.718 724.65 333.98 724.376 334.259C724.102 334.538 723.738 334.775 723.283 334.971C722.828 335.166 722.272 335.264 721.617 335.264ZM721.881 333.708C722.566 333.708 723.143 333.574 723.613 333.305C724.087 333.036 724.445 332.688 724.684 332.263C724.929 331.837 725.051 331.389 725.051 330.92V329.334C724.978 329.422 724.816 329.503 724.567 329.576C724.322 329.645 724.039 329.706 723.716 329.76C723.398 329.809 723.087 329.853 722.784 329.892C722.485 329.926 722.243 329.956 722.057 329.98C721.607 330.039 721.186 330.134 720.795 330.266C720.408 330.394 720.095 330.587 719.855 330.846C719.62 331.101 719.503 331.448 719.503 331.888C719.503 332.49 719.726 332.945 720.171 333.253C720.621 333.557 721.191 333.708 721.881 333.708ZM729.945 335V323.727H738.81V335H737.078V325.342H731.677V335H729.945ZM742.685 339.227C742.392 339.227 742.13 339.203 741.9 339.154C741.67 339.11 741.511 339.066 741.423 339.022L741.863 337.495C742.284 337.603 742.656 337.642 742.979 337.613C743.302 337.583 743.588 337.439 743.837 337.18C744.092 336.925 744.324 336.512 744.535 335.939L744.857 335.059L740.689 323.727H742.568L745.679 332.71H745.797L748.909 323.727H750.787L746.002 336.644C745.787 337.226 745.52 337.708 745.202 338.09C744.884 338.476 744.515 338.762 744.094 338.948C743.678 339.134 743.209 339.227 742.685 339.227ZM753.074 339.227V323.727H754.747V325.518H754.952C755.08 325.322 755.256 325.073 755.481 324.769C755.711 324.461 756.038 324.187 756.464 323.947C756.895 323.703 757.477 323.58 758.211 323.58C759.16 323.58 759.997 323.818 760.721 324.292C761.445 324.767 762.01 325.44 762.416 326.311C762.822 327.182 763.025 328.209 763.025 329.393C763.025 330.587 762.822 331.622 762.416 332.497C762.01 333.368 761.447 334.043 760.728 334.523C760.009 334.998 759.18 335.235 758.24 335.235C757.516 335.235 756.936 335.115 756.501 334.875C756.065 334.631 755.73 334.354 755.495 334.046C755.261 333.733 755.08 333.473 754.952 333.268H754.806V339.227H753.074ZM754.776 329.364C754.776 330.215 754.901 330.966 755.15 331.617C755.4 332.263 755.764 332.769 756.244 333.136C756.723 333.498 757.311 333.679 758.005 333.679C758.729 333.679 759.334 333.488 759.818 333.107C760.307 332.72 760.674 332.201 760.919 331.551C761.168 330.895 761.293 330.166 761.293 329.364C761.293 328.571 761.171 327.857 760.926 327.221C760.687 326.58 760.322 326.073 759.833 325.701C759.348 325.325 758.739 325.136 758.005 325.136C757.301 325.136 756.709 325.315 756.229 325.672C755.75 326.024 755.388 326.519 755.143 327.155C754.898 327.786 754.776 328.522 754.776 329.364Z" fill="#65758B"/>
<path opacity="0.1" d="M515.667 239C527.817 239 537.667 228.255 537.667 215C537.667 201.745 527.817 191 515.667 191C503.516 191 493.667 201.745 493.667 215C493.667 228.255 503.516 239 515.667 239Z" fill="#00005C"/>
<path d="M515.667 227C521.742 227 526.667 221.627 526.667 215C526.667 208.373 521.742 203 515.667 203C509.591 203 504.667 208.373 504.667 215C504.667 221.627 509.591 227 515.667 227Z" fill="#00005C"/>
<path d="M515.667 219C517.692 219 519.333 217.209 519.333 215C519.333 212.791 517.692 211 515.667 211C513.642 211 512 212.791 512 215C512 217.209 513.642 219 515.667 219Z" fill="white"/>
<path d="M484.183 268.64V263.385H485.152C485.484 263.082 485.798 262.654 486.091 262.101C486.39 261.543 486.642 260.8 486.847 259.87C487.057 258.936 487.197 257.749 487.265 256.311L487.588 249.97H496.513V263.385H498.245V268.611H496.513V265H485.915V268.64H484.183ZM487.324 263.385H494.781V251.584H489.232L488.997 256.311C488.939 257.407 488.836 258.4 488.689 259.29C488.542 260.176 488.354 260.961 488.124 261.646C487.894 262.326 487.627 262.906 487.324 263.385ZM501.876 269.227C501.582 269.227 501.32 269.203 501.09 269.154C500.86 269.11 500.701 269.066 500.613 269.022L501.054 267.495C501.474 267.603 501.846 267.642 502.169 267.613C502.492 267.583 502.778 267.439 503.028 267.18C503.282 266.925 503.515 266.512 503.725 265.939L504.048 265.059L499.879 253.727H501.758L504.87 262.71H504.987L508.099 253.727H509.978L505.193 266.644C504.978 267.226 504.711 267.708 504.393 268.09C504.075 268.476 503.705 268.762 503.285 268.948C502.869 269.134 502.399 269.227 501.876 269.227ZM520.63 249.5L521.511 250.557C521.169 250.89 520.772 251.122 520.322 251.254C519.872 251.386 519.363 251.467 518.796 251.496C518.228 251.526 517.597 251.555 516.902 251.584C516.119 251.614 515.471 251.804 514.957 252.157C514.444 252.509 514.047 253.018 513.768 253.683C513.49 254.349 513.311 255.166 513.233 256.134H513.379C513.761 255.43 514.29 254.911 514.965 254.579C515.64 254.246 516.364 254.08 517.137 254.08C518.018 254.08 518.81 254.285 519.515 254.696C520.219 255.107 520.777 255.716 521.188 256.523C521.599 257.331 521.805 258.326 521.805 259.51C521.805 260.69 521.594 261.707 521.174 262.563C520.758 263.42 520.173 264.08 519.419 264.545C518.671 265.005 517.793 265.235 516.785 265.235C515.777 265.235 514.894 264.998 514.135 264.523C513.377 264.043 512.787 263.334 512.367 262.395C511.946 261.45 511.736 260.283 511.736 258.894V257.69C511.736 255.18 512.161 253.277 513.013 251.981C513.869 250.684 515.156 250.014 516.873 249.97C517.48 249.95 518.02 249.945 518.495 249.955C518.969 249.965 519.383 249.943 519.735 249.889C520.087 249.835 520.386 249.705 520.63 249.5ZM516.785 263.679C517.465 263.679 518.05 263.508 518.539 263.165C519.033 262.823 519.412 262.341 519.676 261.719C519.941 261.093 520.073 260.357 520.073 259.51C520.073 258.688 519.938 257.989 519.669 257.411C519.405 256.834 519.026 256.394 518.531 256.09C518.037 255.787 517.445 255.635 516.755 255.635C516.251 255.635 515.799 255.721 515.398 255.892C514.996 256.064 514.654 256.315 514.37 256.648C514.086 256.981 513.866 257.387 513.71 257.866C513.558 258.346 513.477 258.894 513.468 259.51C513.468 260.773 513.764 261.783 514.356 262.541C514.948 263.3 515.757 263.679 516.785 263.679ZM527.771 265.264C527.057 265.264 526.409 265.13 525.826 264.861C525.244 264.587 524.782 264.193 524.439 263.679C524.097 263.16 523.926 262.534 523.926 261.8C523.926 261.154 524.053 260.631 524.307 260.23C524.562 259.824 524.902 259.506 525.327 259.276C525.753 259.046 526.223 258.874 526.736 258.762C527.255 258.644 527.776 258.551 528.3 258.483C528.985 258.395 529.54 258.329 529.966 258.285C530.396 258.236 530.709 258.155 530.905 258.043C531.106 257.93 531.206 257.734 531.206 257.455V257.397C531.206 256.673 531.008 256.11 530.611 255.709C530.22 255.308 529.626 255.107 528.828 255.107C528.001 255.107 527.353 255.288 526.883 255.65C526.414 256.012 526.083 256.399 525.892 256.81L524.249 256.223C524.542 255.538 524.934 255.004 525.423 254.623C525.917 254.236 526.455 253.967 527.037 253.815C527.624 253.659 528.202 253.58 528.769 253.58C529.131 253.58 529.547 253.625 530.017 253.713C530.492 253.796 530.949 253.969 531.389 254.234C531.835 254.498 532.204 254.897 532.498 255.43C532.791 255.963 532.938 256.678 532.938 257.573V265H531.206V263.473H531.118C531 263.718 530.805 263.98 530.531 264.259C530.257 264.538 529.892 264.775 529.437 264.971C528.982 265.166 528.427 265.264 527.771 265.264ZM528.035 263.708C528.72 263.708 529.298 263.574 529.767 263.305C530.242 263.036 530.599 262.688 530.839 262.263C531.084 261.837 531.206 261.389 531.206 260.92V259.334C531.133 259.422 530.971 259.503 530.722 259.576C530.477 259.645 530.193 259.706 529.87 259.76C529.552 259.809 529.242 259.853 528.938 259.892C528.64 259.926 528.398 259.956 528.212 259.98C527.761 260.039 527.341 260.134 526.949 260.266C526.563 260.394 526.25 260.587 526.01 260.846C525.775 261.101 525.658 261.448 525.658 261.888C525.658 262.49 525.88 262.945 526.325 263.253C526.776 263.557 527.346 263.708 528.035 263.708ZM537.831 262.446L543.262 253.727H545.258V265H543.526V256.281L538.125 265H536.099V253.727H537.831V262.446ZM542.117 249.97H543.732C543.732 250.762 543.458 251.411 542.91 251.915C542.362 252.418 541.618 252.67 540.679 252.67C539.754 252.67 539.018 252.418 538.47 251.915C537.927 251.411 537.655 250.762 537.655 249.97H539.27C539.27 250.351 539.375 250.686 539.585 250.975C539.801 251.264 540.165 251.408 540.679 251.408C541.193 251.408 541.559 251.264 541.78 250.975C542.005 250.686 542.117 250.351 542.117 249.97Z" fill="#65758B"/>
</svg>
