<svg width="974" height="342" viewBox="0 0 974 342" fill="none" xmlns="http://www.w3.org/2000/svg">
<path opacity="0.5" d="M0.911667 69.55C37.5783 42.8834 80.3561 36.2167 129.245 49.55M129.245 49.55C178.134 22.8834 227.023 16.2167 275.912 29.55M129.245 49.55C153.689 76.2167 178.134 96.2167 202.578 109.55M275.912 29.55C324.801 9.55005 373.689 2.88338 422.578 9.55005M275.912 29.55C300.356 56.2167 324.801 62.8834 349.245 49.55C373.689 76.2167 398.134 82.8834 422.578 69.55M422.578 9.55005C471.467 -3.78328 520.356 -0.449951 569.245 19.55M422.578 9.55005C447.023 36.2167 471.467 42.8834 495.912 29.55C520.356 56.2167 544.8 62.8834 569.245 49.55C593.689 76.2167 618.134 82.8834 642.578 69.55C667.023 122.883 691.467 156.217 715.912 169.55C740.356 196.217 764.8 202.883 789.245 189.55C813.689 216.217 838.134 222.883 862.578 209.55M569.245 19.55C618.134 6.21672 667.023 9.55005 715.912 29.55M569.245 19.55C593.689 46.2167 618.134 52.8834 642.578 39.55C667.023 66.2167 691.467 72.8834 715.912 59.55C740.356 86.2167 764.8 92.8834 789.245 79.55M715.912 29.55C764.8 16.2167 813.689 22.8834 862.578 49.55C899.245 36.2167 935.912 42.8834 972.578 69.55M715.912 29.55C740.356 56.2167 764.8 62.8834 789.245 49.55C813.689 76.2167 838.134 82.8834 862.578 69.55M202.578 109.55C227.023 136.217 251.467 142.883 275.912 129.55C300.356 156.217 324.801 162.883 349.245 149.55M202.578 109.55C227.023 162.883 251.467 196.217 275.912 209.55C300.356 236.217 324.801 242.883 349.245 229.55M422.578 69.55C447.023 96.2167 471.467 102.883 495.912 89.55M422.578 69.55C447.023 122.883 471.467 156.217 495.912 169.55C520.356 196.217 544.8 202.883 569.245 189.55C593.689 216.217 618.134 222.883 642.578 209.55M349.245 229.55C373.689 256.217 398.134 262.883 422.578 249.55M349.245 229.55C373.689 282.883 398.134 316.217 422.578 329.55C447.023 342.883 471.467 342.883 495.912 329.55" stroke="#C4CBD4" stroke-width="3.1"/>
</svg>
